<svg width="143" height="147" viewBox="0 0 143 147" fill="none" xmlns="http://www.w3.org/2000/svg">
<path d="M17.5404 15.383V44.8256M36.5342 2V30.9702M109.056 6.72346V51.7532M128.913 15.383V44.8256M141 30.9702V76M2 15.383V76" stroke="white" stroke-width="3" stroke-linecap="round"/>
<path d="M52.25 116.19V141.688C52.25 143.449 53.6326 144.876 55.3381 144.876H76.0285C77.9046 144.876 79.4254 143.306 79.4254 141.37C79.4254 135.561 74.8629 130.852 69.2347 130.852H65.2201V116.19" stroke="white" stroke-width="3"/>
<path d="M70.3672 116.19V130.466M83.4718 116.19V130.466C89.1584 130.466 93.7683 135.051 93.7683 140.707C93.7683 142.592 92.2316 144.121 90.3361 144.121H73.4873" stroke="white" stroke-width="3"/>
<path d="M52.6288 116.19H22.681C15.0028 116.19 10.1891 107.895 13.9986 101.229L60.1762 20.4179C64.0151 13.6997 73.7021 13.6997 77.541 20.4179L123.719 101.229C127.528 107.895 122.714 116.19 115.036 116.19H82.8238" stroke="white" stroke-width="3"/>
<path d="M65.0859 116.19H70.4297" stroke="white" stroke-width="2" stroke-linecap="round"/>
<path d="M66.2183 55.0458C65.918 55.0458 65.63 54.9065 65.4176 54.6584C65.2053 54.4104 65.0859 54.0739 65.0859 53.7231V51.8394C65.0859 51.4885 65.2053 51.1521 65.4176 50.904C65.63 50.656 65.918 50.5166 66.2183 50.5166C66.5186 50.5166 66.8065 50.656 67.0189 50.904C67.2312 51.1521 67.3506 51.4885 67.3506 51.8394V53.7231C67.35 54.0737 67.2304 54.4097 67.0182 54.6576C66.806 54.9055 66.5184 55.0451 66.2183 55.0458Z" fill="white"/>
<path d="M71.5001 55.0458C71.1998 55.0458 70.9117 54.9078 70.6994 54.662C70.487 54.4162 70.3678 54.0828 70.3678 53.7353V51.8689C70.3629 51.6933 70.3886 51.5185 70.4433 51.3547C70.498 51.1909 70.5806 51.0415 70.6862 50.9153C70.7917 50.7892 70.9181 50.6889 71.0579 50.6204C71.1976 50.5519 71.3478 50.5166 71.4995 50.5166C71.6512 50.5166 71.8014 50.5519 71.9411 50.6204C72.0808 50.6889 72.2072 50.7892 72.3128 50.9153C72.4183 51.0415 72.5009 51.1909 72.5556 51.3547C72.6103 51.5185 72.6361 51.6933 72.6312 51.8689V53.7353C72.63 54.0822 72.5105 54.4145 72.2987 54.66C72.0868 54.9054 71.7998 55.0441 71.5001 55.0458Z" fill="white"/>
<path d="M68.9653 60.4368C80.2011 60.4368 89.3469 68.3292 89.3469 78.0287C89.3589 78.7872 89.2189 79.5406 88.9349 80.2448C88.6509 80.9491 88.2287 81.5902 87.6929 82.1309C87.1571 82.6715 86.5184 83.1008 85.8139 83.3939C85.1094 83.687 84.3533 83.8379 83.5895 83.8379C82.8257 83.8379 82.0696 83.687 81.3651 83.3939C80.6606 83.1008 80.0219 82.6715 79.4861 82.1309C78.9503 81.5902 78.5281 80.9491 78.2441 80.2448C77.9602 79.5406 77.8201 78.7872 77.8321 78.0287C77.8321 74.6933 73.7713 70.7894 68.9653 70.7894C64.1593 70.7894 60.1 74.6905 60.1 78.0287C60.112 78.7872 59.972 79.5406 59.688 80.2448C59.404 80.9491 58.9818 81.5902 58.446 82.1309C57.9102 82.6715 57.2714 83.1008 56.567 83.3939C55.8625 83.687 55.1064 83.8379 54.3426 83.8379C53.5788 83.8379 52.8227 83.687 52.1182 83.3939C51.4137 83.1008 50.775 82.6715 50.2391 82.1309C49.7033 81.5902 49.2812 80.9491 48.9972 80.2448C48.7133 79.5406 48.5732 78.7872 48.5852 78.0287C48.5824 68.3292 57.7211 60.4368 68.9653 60.4368Z" fill="white"/>
</svg>
