<svg width="25" height="33" viewBox="0 0 25 33" fill="none" xmlns="http://www.w3.org/2000/svg">
<path fill-rule="evenodd" clip-rule="evenodd" d="M12.5008 3.06361C7.47727 3.06361 3.34556 6.98853 3.45089 11.7602C3.47957 13.0596 3.98099 14.5511 4.63146 15.9288C5.27209 17.2858 6.0057 18.426 6.39447 18.9957C6.63554 19.349 6.84686 19.7423 6.99712 20.1769L8.26141 23.8329H16.7402L18.0045 20.1769C18.1548 19.7423 18.3661 19.349 18.6071 18.9957C18.9959 18.426 19.7295 17.2858 20.3701 15.9289C21.0206 14.5511 21.522 13.0596 21.5507 11.7602C21.656 6.98853 17.5243 3.06361 12.5008 3.06361ZM16.3792 26.3252H8.62242V26.7406C8.62242 28.8053 10.3588 30.4791 12.5008 30.4791C14.6427 30.4791 16.3792 28.8052 16.3792 26.7404V26.3252ZM6.03682 25.2813L4.54421 20.965C4.476 20.7678 4.37288 20.5684 4.23429 20.3653C3.80375 19.7344 2.99355 18.4766 2.2781 16.9612C1.5725 15.4666 0.905566 13.6115 0.865871 11.8132C0.728182 5.57564 6.10039 0.571289 12.5008 0.571289C18.9012 0.571289 24.2734 5.57564 24.1357 11.8132C24.096 13.6115 23.4291 15.4666 22.7235 16.9612C22.0081 18.4766 21.1979 19.7344 20.7673 20.3653C20.6288 20.5684 20.5256 20.7678 20.4574 20.965L18.9648 25.2813V26.7404C18.9648 30.1815 16.0709 32.9714 12.5008 32.9714C8.93085 32.9714 6.03682 30.1818 6.03682 26.7406V25.2813Z" fill="white"/>
</svg>
