<svg width="90" height="90" viewBox="0 0 90 90" fill="none" xmlns="http://www.w3.org/2000/svg">
<g filter="url(#filter0_d)">
<g filter="url(#filter1_d)">
<path fill-rule="evenodd" clip-rule="evenodd" d="M21.4122 22.5003H79.8438L74.2789 56.2503H26.9771L21.4122 22.5003Z" fill="#FED267"/>
<path fill-rule="evenodd" clip-rule="evenodd" d="M21.4122 22.5003H79.8438L74.2789 56.2503H26.9771L21.4122 22.5003Z" stroke="#FED267" stroke-linecap="round" stroke-linejoin="round"/>
</g>
<path fill-rule="evenodd" clip-rule="evenodd" d="M33.75 75C35.8211 75 37.5 73.3211 37.5 71.25C37.5 69.1789 35.8211 67.5 33.75 67.5C31.6789 67.5 30 69.1789 30 71.25C30 73.3211 31.6789 75 33.75 75Z" fill="#FED267" stroke="#FED267" stroke-width="2"/>
<path fill-rule="evenodd" clip-rule="evenodd" d="M67.5 75C69.5711 75 71.25 73.3211 71.25 71.25C71.25 69.1789 69.5711 67.5 67.5 67.5C65.4289 67.5 63.75 69.1789 63.75 71.25C63.75 73.3211 65.4289 75 67.5 75Z" fill="#FED267" stroke="#FED267" stroke-width="2"/>
<path fill-rule="evenodd" clip-rule="evenodd" d="M26.25 22.5H11.25H26.25Z" fill="#FED267"/>
<path d="M26.25 22.5H11.25" stroke="#FED267" stroke-width="4" stroke-linecap="round"/>
</g>
<defs>
<filter id="filter0_d" x="-4" y="0" width="98" height="98" filterUnits="userSpaceOnUse" color-interpolation-filters="sRGB">
<feFlood flood-opacity="0" result="BackgroundImageFix"/>
<feColorMatrix in="SourceAlpha" type="matrix" values="0 0 0 0 0 0 0 0 0 0 0 0 0 0 0 0 0 0 127 0" result="hardAlpha"/>
<feOffset dy="4"/>
<feGaussianBlur stdDeviation="2"/>
<feComposite in2="hardAlpha" operator="out"/>
<feColorMatrix type="matrix" values="0 0 0 0 0 0 0 0 0 0 0 0 0 0 0 0 0 0 0.25 0"/>
<feBlend mode="normal" in2="BackgroundImageFix" result="effect1_dropShadow"/>
<feBlend mode="normal" in="SourceGraphic" in2="effect1_dropShadow" result="shape"/>
</filter>
<filter id="filter1_d" x="18.9141" y="22" width="63.4297" height="38.75" filterUnits="userSpaceOnUse" color-interpolation-filters="sRGB">
<feFlood flood-opacity="0" result="BackgroundImageFix"/>
<feColorMatrix in="SourceAlpha" type="matrix" values="0 0 0 0 0 0 0 0 0 0 0 0 0 0 0 0 0 0 127 0" result="hardAlpha"/>
<feOffset dy="2"/>
<feGaussianBlur stdDeviation="1"/>
<feComposite in2="hardAlpha" operator="out"/>
<feColorMatrix type="matrix" values="0 0 0 0 0 0 0 0 0 0 0 0 0 0 0 0 0 0 0.25 0"/>
<feBlend mode="normal" in2="BackgroundImageFix" result="effect1_dropShadow"/>
<feBlend mode="normal" in="SourceGraphic" in2="effect1_dropShadow" result="shape"/>
</filter>
</defs>
</svg>
