<svg width="154" height="155" viewBox="0 0 154 155" fill="none" xmlns="http://www.w3.org/2000/svg">
<rect width="15.0289" height="3.02242" rx="1.5" transform="matrix(0.792791 -0.609493 0.594123 0.804374 0 9.16016)" fill="white" stroke="white"/>
<path d="M152.033 81.6798C151.337 82.1304 150.418 81.9261 149.98 81.2229L143.565 70.923C143.127 70.2199 143.336 69.2841 144.031 68.8335C144.726 68.3828 145.645 68.5872 146.083 69.2904L152.499 79.5902C152.937 80.2934 152.728 81.2291 152.033 81.6798Z" fill="white" stroke="white"/>
<rect width="6.07428" height="5.98182" transform="matrix(0.336012 0.941858 -0.937455 0.348107 6.46094 78.4248)" fill="white" stroke="white"/>
<rect width="6.07425" height="5.98181" transform="matrix(0.336013 0.941857 -0.937455 0.348106 97.6719 7.67188)" fill="white" stroke="white"/>
<rect width="6.07425" height="5.98181" transform="matrix(0.336013 0.941857 -0.937455 0.348106 142.852 5.9668)" fill="white" stroke="white"/>
<rect width="10.0365" height="2.01151" rx="1.00575" transform="matrix(-0.736442 0.676501 -0.661709 -0.74976 140.52 35.6934)" fill="white" stroke="white"/>
<rect width="9.9997" height="2.01882" rx="1.00941" transform="matrix(-0.852561 -0.522627 0.50748 -0.861664 29.3047 36.126)" fill="white" stroke="white"/>
<path d="M125.947 76.7207C124.466 79.2659 116.38 80.701 112.06 80.701C108.357 83.731 102.803 90.4273 110.209 92.9724C117.614 95.5174 123.631 91.1551 128.722 91.1551" stroke="white" stroke-width="3" stroke-linecap="round"/>
<path d="M118.065 94.1951C115.459 108.792 105.52 121.394 91.7104 126.267M118.065 79.7036C117.042 72.202 115.306 68.0535 114.565 66.9169C107.808 52.4384 93.1991 42.415 76.2668 42.415C52.9062 42.415 33.9688 61.4939 33.9688 85.0288C33.9688 104.027 46.3096 120.122 63.3558 125.621" stroke="white" stroke-width="3"/>
<path d="M73.4259 63.8792C73.0074 63.8792 72.6059 63.7432 72.3099 63.5011C72.0139 63.2591 71.8477 62.9308 71.8477 62.5885V60.7506C71.8477 60.4083 72.0139 60.08 72.3099 59.838C72.6059 59.5959 73.0074 59.46 73.4259 59.46C73.8445 59.46 74.246 59.5959 74.542 59.838C74.838 60.08 75.0042 60.4083 75.0042 60.7506V62.5885C75.0034 62.9306 74.8369 63.2585 74.5411 63.5004C74.2452 63.7423 73.8443 63.8785 73.4259 63.8792Z" fill="white"/>
<path d="M78.4767 63.8792C78.0581 63.8792 77.6567 63.7431 77.3607 63.501C77.0648 63.2589 76.8984 62.9306 76.8984 62.5882V60.751C76.8984 60.4086 77.0648 60.0802 77.3607 59.8381C77.6567 59.596 78.0581 59.46 78.4767 59.46C78.8953 59.46 79.2967 59.596 79.5927 59.8381C79.8887 60.0802 80.055 60.4086 80.055 60.751V62.5882C80.0529 62.93 79.8859 63.2574 79.5904 63.4991C79.2948 63.7409 78.8946 63.8774 78.4767 63.8792Z" fill="white"/>
<path d="M75.9524 82.1873C64.9891 82.1873 56.0664 74.5221 56.0664 65.1019C56.0664 63.629 56.6582 62.2165 57.7116 61.175C58.7651 60.1336 60.1938 59.5485 61.6835 59.5485C63.1733 59.5485 64.6021 60.1336 65.6555 61.175C66.7089 62.2165 67.3007 63.629 67.3007 65.1019C67.3007 68.3399 71.263 71.0763 75.9524 71.0763C80.6419 71.0763 84.6029 68.3427 84.6029 65.1019C84.5912 64.3652 84.7278 63.6335 85.0049 62.9496C85.282 62.2656 85.6939 61.6429 86.2167 61.1179C86.7395 60.5928 87.3628 60.1758 88.0502 59.8912C88.7376 59.6065 89.4754 59.46 90.2207 59.46C90.9659 59.46 91.7037 59.6065 92.3911 59.8912C93.0785 60.1758 93.7018 60.5928 94.2246 61.1179C94.7474 61.6429 95.1594 62.2656 95.4365 62.9496C95.7135 63.6335 95.8502 64.3652 95.8385 65.1019C95.8385 74.5221 86.9282 82.1873 75.9524 82.1873Z" fill="#FFFCFC"/>
<path d="M125.31 77.5732V70.9571C125.31 69.4323 126.646 68.1963 128.294 68.1963C129.942 68.1963 131.277 69.4323 131.277 70.9571V74.5635" stroke="white" stroke-width="3"/>
<path d="M128.99 90.6256C129.602 91.2453 132.973 91.5551 137.262 90.6256C140.694 89.8821 139.918 82.4675 139.101 78.8531C138.572 75.1034 133.238 74.0221 130.85 74.1633" stroke="white" stroke-width="3"/>
<path fill-rule="evenodd" clip-rule="evenodd" d="M130.381 74.2977C130.211 74.112 129.941 74.1193 129.779 74.314C129.377 74.7954 128.902 75.6472 128.762 76.6772C128.619 77.7337 128.833 78.9487 129.779 80.0815L129.795 80.1011L129.813 80.1185C130.204 80.4929 130.995 80.8497 132.153 80.9528C133.328 81.0573 134.916 80.9055 136.942 80.2119C137.168 80.1347 137.296 79.8633 137.228 79.6055C137.161 79.3478 136.923 79.2015 136.697 79.2787C134.755 79.9438 133.272 80.0752 132.22 79.9815C131.179 79.8889 130.592 79.5806 130.377 79.3875C129.638 78.4894 129.501 77.5898 129.605 76.8267C129.713 76.0309 130.088 75.3542 130.395 74.9864C130.558 74.7917 130.551 74.4834 130.381 74.2977Z" fill="white" stroke="white" stroke-width="2" stroke-linecap="round"/>
<path fill-rule="evenodd" clip-rule="evenodd" d="M129.785 80.4569C129.624 80.26 129.345 80.2398 129.162 80.4118C128.743 80.8033 128.233 81.5107 128.081 82.3841C127.922 83.2996 128.17 84.3244 129.162 85.2521L129.18 85.269L129.199 85.2837C129.601 85.5846 130.411 85.8701 131.601 85.9528C132.807 86.0366 134.445 85.9152 136.54 85.355C136.777 85.2916 136.921 85.0346 136.862 84.7809C136.803 84.5272 136.563 84.3729 136.326 84.4362C134.306 84.9765 132.76 85.0844 131.658 85.0078C130.569 84.932 129.95 84.6792 129.723 84.5205C128.969 83.804 128.853 83.1162 128.95 82.5576C129.055 81.9521 129.426 81.4214 129.743 81.125C129.927 80.9529 129.946 80.6538 129.785 80.4569Z" fill="white" stroke="white" stroke-width="2" stroke-linecap="round"/>
<path fill-rule="evenodd" clip-rule="evenodd" d="M129.869 84.8552C129.681 84.6667 129.378 84.6667 129.191 84.8553C128.755 85.2937 128.42 85.9171 128.226 86.5809C128.032 87.2468 127.967 87.9923 128.115 88.6872C128.263 89.389 128.632 90.0503 129.303 90.4924C129.968 90.9313 130.874 91.1157 132.027 90.9867C132.29 90.9572 132.479 90.7185 132.45 90.4536C132.421 90.1886 132.184 89.9976 131.921 90.0271C130.916 90.1395 130.254 89.9653 129.828 89.6845C129.407 89.407 129.159 88.9873 129.052 88.4858C128.945 87.9774 128.987 87.3971 129.146 86.8535C129.305 86.3077 129.571 85.8378 129.869 85.538C130.056 85.3494 130.056 85.0438 129.869 84.8552Z" fill="white" stroke="white" stroke-width="2" stroke-linecap="round"/>
<path d="M62.0273 124.938V150.142C62.0273 151.882 63.4249 153.292 65.1488 153.292H86.0623C87.9586 153.292 89.4958 151.74 89.4958 149.827C89.4958 144.085 84.884 139.43 79.1951 139.43H75.1373V128.482" stroke="white" stroke-width="3"/>
<path d="M79.7461 128.039V139.411M92.6474 125.824V139.411C98.2458 139.411 102.784 143.775 102.784 149.158C102.784 150.952 101.271 152.407 99.4053 152.407H89.0499" stroke="white" stroke-width="3"/>
</svg>
