<svg width="60" height="58" viewBox="0 0 60 58" fill="none" xmlns="http://www.w3.org/2000/svg">
<path d="M28.1785 15.2943C18.3298 14.042 9.14432 16.7342 4.8 24.373C2.38319 28.6225 2.04037 32.8123 2.00381 37.1475C1.99915 37.6998 2.44771 38.1476 3 38.1476L8.87277 38.1476C9.99194 42.1547 11.8583 43 13.7691 43C16.3385 43 18.5783 41.3934 18.5783 38.1476H40.4894C41.4686 41.9043 43.2873 43 45.8786 43C49.4517 43 49.5649 40.1303 49.938 38.1476L56 38.1476C57.1046 38.1476 58.0142 37.248 57.9245 36.1471C57.389 29.5756 53.9263 27.2486 44.98 25.5043C43.3 22.8542 38.0272 16.5465 28.1785 15.2943Z" fill="#FF7645" stroke="#FF7645" stroke-width="3" stroke-linecap="round"/>
<path d="M45.4463 23.3306C45.6469 23.2197 45.8042 23.0499 45.8836 22.8585C45.963 22.6671 45.958 22.4698 45.8697 22.3101L45.3955 21.4521C45.3072 21.2923 45.1428 21.1831 44.9385 21.1485C44.7342 21.1139 44.5067 21.1568 44.3061 21.2677C44.1055 21.3785 43.9482 21.5484 43.8687 21.7397C43.7893 21.9311 43.7944 22.1284 43.8827 22.2882L44.3569 23.1462C44.4455 23.3056 44.6099 23.4146 44.8141 23.4492C45.0183 23.4837 45.2456 23.4411 45.4463 23.3306V23.3306Z" fill="#FFD062"/>
<path d="M42.9736 24.6978C43.1742 24.5869 43.3315 24.4171 43.4109 24.2257C43.4903 24.0342 43.4853 23.8369 43.3969 23.6771L42.9229 22.8195C42.8346 22.6596 42.6702 22.5504 42.4658 22.5158C42.2615 22.4811 42.0341 22.524 41.8335 22.6348C41.6328 22.7457 41.4755 22.9156 41.3961 23.107C41.3168 23.2984 41.3218 23.4957 41.4101 23.6556L41.8841 24.5132C41.9733 24.6722 42.1378 24.7808 42.3418 24.8154C42.5458 24.8499 42.7729 24.8077 42.9736 24.6978Z" fill="#FFD062"/>
<path d="M50.5096 33.0586C54.6065 30.7942 56.3812 26.1293 54.4644 22.6611C54.1647 22.1189 53.6561 21.7211 53.0506 21.5552C52.445 21.3894 51.792 21.469 51.2353 21.7767C50.6786 22.0844 50.2637 22.5949 50.082 23.1959C49.9002 23.7969 49.9665 24.4392 50.2662 24.9815C50.9251 26.1736 50.0012 27.9994 48.2487 28.9679C46.4963 29.9365 44.4598 29.7482 43.8004 28.555C43.6548 28.2814 43.4549 28.0403 43.2122 27.8457C42.9695 27.6511 42.6888 27.5069 42.3866 27.4216C42.0844 27.3363 41.7666 27.3115 41.4518 27.3487C41.137 27.3858 40.8315 27.4843 40.553 27.6382C40.2745 27.7921 40.0286 27.9985 39.8296 28.2452C39.6307 28.492 39.4826 28.7742 39.3941 29.0755C39.3055 29.3768 39.2783 29.6911 39.3139 30.0002C39.3495 30.3092 39.4473 30.6068 39.6016 30.8756C41.5184 34.3438 46.4079 35.3255 50.5096 33.0586Z" fill="#FFD062"/>
</svg>
