<svg width="35" height="35" viewBox="0 0 35 35" fill="none" xmlns="http://www.w3.org/2000/svg">
<g clip-path="url(#clip0)">
<path d="M5.60938 16.7659C5.6746 16.3143 5.71976 15.8577 5.80003 15.4112C6.26526 12.7998 7.59606 10.421 9.578 8.65806L9.75359 8.51758L13.7122 20.6993H6.01577C5.91041 20.1324 5.80505 19.5604 5.7047 18.9834C5.66457 18.7426 5.63948 18.4817 5.60938 18.2509V16.7659Z" fill="black"/>
<path d="M16.7067 29.3837C16.205 29.3085 15.6631 29.2633 15.1514 29.1479C13.2944 28.782 11.5529 27.9741 10.0743 26.7924C8.59572 25.6108 7.42364 24.0903 6.65727 22.3597C6.61713 22.2794 6.58701 22.1941 6.54688 22.0938H19.3407C19.3319 22.1495 19.3202 22.2048 19.3056 22.2593C18.543 24.6007 17.7821 26.942 17.0228 29.2834C17.0228 29.3135 17.0228 29.3436 16.9877 29.3687L16.7067 29.3837Z" fill="black"/>
<path d="M23.6669 7.36384L13.3064 14.8896C13.2763 14.8144 13.2512 14.7642 13.2311 14.709C12.4819 12.4112 11.7343 10.1116 10.9884 7.81038C10.9483 7.67993 10.9332 7.59464 11.0787 7.50934C15.1861 5.04422 19.3404 4.96562 23.5414 7.27353L23.6669 7.36384Z" fill="black"/>
<path d="M28.6314 21.6547C27.8454 23.7693 26.4725 25.6157 24.6737 26.9772C22.875 28.3387 20.7251 29.1588 18.4766 29.3411L22.4351 17.1543L28.6314 21.6547Z" fill="black"/>
<path d="M29.0642 20.2522L18.6836 12.7264L24.8848 8.21094C26.8031 9.73206 28.2049 11.8085 28.8986 14.1563C29.4893 16.1383 29.5464 18.2411 29.0642 20.2522Z" fill="black"/>
<path d="M17.4991 34.7483C27.0256 34.7483 34.7483 27.0256 34.7483 17.4991C34.7483 7.9727 27.0256 0.25 17.4991 0.25C7.9727 0.25 0.25 7.9727 0.25 17.4991C0.25 27.0256 7.9727 34.7483 17.4991 34.7483Z" stroke="black" stroke-miterlimit="10"/>
</g>
<defs>
<clipPath id="clip0">
<rect width="35" height="35" fill="white"/>
</clipPath>
</defs>
</svg>
