<svg width="58" height="58" viewBox="0 0 58 58" fill="none" xmlns="http://www.w3.org/2000/svg">
<path d="M34.6035 42.5141L34.6035 42.5139C34.5359 34.4539 34.5461 33.4367 34.5669 31.3605C34.5823 29.8299 34.6034 27.7236 34.6034 21.795V21.0014C34.6034 17.9381 36.7659 15.3008 39.7698 14.7005L50.1525 12.6259C52.1029 12.2361 53.507 10.5237 53.507 8.5347C53.507 5.84323 50.9962 3.85601 48.3767 4.47422L33.9918 7.86903C32.1602 8.30129 30.8636 9.94253 30.8627 11.828C30.8601 17.0988 30.8524 18.8753 30.8447 20.6504C30.8352 22.8143 30.8258 24.9761 30.8258 33.4635V34.1922C30.8258 34.8328 30.2465 35.6007 29.3468 35.4014C29.3467 35.4014 29.3467 35.4014 29.3467 35.4014L29.5631 34.4251C29.5439 34.4208 29.5255 34.4139 29.508 34.4051L34.6035 42.5141ZM34.6035 42.5141C34.6263 45.1774 34.0517 47.3377 32.9619 49.0732C31.8728 50.8077 30.2243 52.1891 27.9814 53.2223L27.9809 53.2226C22.4239 55.786 17.0317 55.3764 12.0578 51.6824C9.10367 49.4868 7.5855 46.53 8.09858 42.728L8.09863 42.7276C8.52593 39.5516 10.2973 37.2278 12.9552 35.5877L12.9554 35.5876C17.9377 32.5118 23.0559 32.3715 28.333 34.9178L34.6035 42.5141Z" fill="#FF7645" stroke="#FF7645" stroke-width="2"/>
<path d="M21.36 38.7521C21.536 38.7306 21.6979 38.6528 21.8099 38.5358C21.922 38.4188 21.9751 38.2722 21.9575 38.1283L21.8631 37.3553C21.8456 37.2113 21.7588 37.0818 21.6219 36.9952C21.485 36.9086 21.3091 36.872 21.1331 36.8935C20.9571 36.915 20.7952 36.9928 20.6831 37.1098C20.5711 37.2268 20.518 37.3734 20.5356 37.5174L20.6299 38.2903C20.6479 38.4342 20.7347 38.5635 20.8716 38.65C21.0084 38.7366 21.184 38.7733 21.36 38.7521V38.7521Z" fill="#FFD062"/>
<path d="M19.2389 39.0119C19.4149 38.9904 19.5768 38.9126 19.6888 38.7955C19.8009 38.6785 19.854 38.5319 19.8364 38.3879L19.7421 37.6152C19.7245 37.4712 19.6377 37.3417 19.5008 37.255C19.3639 37.1684 19.1881 37.1318 19.012 37.1533C18.836 37.1748 18.6741 37.2526 18.5621 37.3696C18.45 37.4866 18.3969 37.6333 18.4145 37.7773L18.5088 38.5499C18.5273 38.6936 18.6143 38.8227 18.751 38.9092C18.8877 38.9957 19.063 39.0326 19.2389 39.0119V39.0119Z" fill="#FFD062"/>
<path d="M21.2382 46.5819C25.849 46.019 28.109 42.4692 27.6253 38.5074C27.5497 37.888 27.2283 37.3243 26.7318 36.9404C26.2353 36.5564 25.6044 36.3837 24.9778 36.4602C24.3513 36.5367 23.7804 36.8561 23.3909 37.3482C23.0013 37.8403 22.825 38.4647 22.9006 39.0842C23.0668 40.446 22.64 41.6682 20.6677 41.909C18.6955 42.1497 16.8893 41.2034 16.7229 39.8405C16.69 39.53 16.595 39.2293 16.4433 38.9559C16.2917 38.6825 16.0865 38.4417 15.8396 38.2478C15.5928 38.0538 15.3093 37.9104 15.0055 37.826C14.7018 37.7416 14.384 37.7178 14.0706 37.7561C13.7572 37.7943 13.4544 37.8939 13.1799 38.0489C12.9054 38.2038 12.6647 38.4112 12.4718 38.6589C12.2789 38.9066 12.1376 39.1896 12.0562 39.4915C11.9748 39.7933 11.9548 40.1081 11.9976 40.4173C12.4812 44.3791 16.6221 47.1454 21.2382 46.5819Z" fill="#FFD062"/>
</svg>
