<svg width="58" height="58" viewBox="0 0 58 58" fill="none" xmlns="http://www.w3.org/2000/svg">
<path d="M48.516 27.2087V37.0253C48.2149 37.8452 47.6071 38.1557 46.7466 38.1034C46.2137 38.0716 45.6774 38.0977 45.1203 38.0977V38.5663C45.1203 41.1774 45.1203 43.7892 45.1203 46.4018C45.1203 47.5027 44.5251 48.0963 43.4121 48.0974C33.6381 48.0974 23.8644 48.0974 14.0912 48.0974C13 48.0974 12.398 47.4992 12.3968 46.4268V38.0977H10.7151C9.49943 38.0977 9 37.6098 9 36.4214V27.7864C9 26.6014 9.50404 26.1078 10.7174 26.1056C11.2653 26.1056 11.8132 26.1056 12.3957 26.1056V20.2431C12.3957 19.1127 12.9827 18.5293 14.1258 18.5293H25.3426V13.437C25.3426 11.5388 26.8815 10 28.7797 10V10C30.6779 10 32.2167 11.5388 32.2167 13.437V18.5293H43.3602C44.5355 18.5293 45.1192 19.0979 45.1203 20.2476V26.1044C45.697 26.1044 46.2299 26.1249 46.7651 26.1044C47.6255 26.0589 48.2345 26.3739 48.516 27.2087ZM39.2656 29.3978C39.2748 27.1564 37.4017 25.2822 35.1456 25.2742C34.0471 25.2807 32.9952 25.7126 32.2167 26.4768C31.4383 27.2409 30.9955 28.2761 30.9841 29.3592C30.9725 31.5768 32.8641 33.4385 35.1364 33.4532C35.6784 33.4575 36.216 33.3556 36.7179 33.1534C37.2197 32.9513 37.6759 32.653 38.06 32.2758C38.444 31.8986 38.7484 31.45 38.9553 30.956C39.1623 30.462 39.2677 29.9323 39.2656 29.3978ZM22.3842 25.3698C21.8463 25.3638 21.3125 25.4625 20.8134 25.6604C20.3143 25.8583 19.8597 26.1514 19.4757 26.5229C19.0918 26.8944 18.786 27.337 18.5759 27.8252C18.3658 28.3135 18.2556 28.8379 18.2515 29.3683C18.2319 31.5813 20.0428 33.4214 22.2666 33.4476C22.8145 33.4716 23.3618 33.387 23.876 33.1986C24.3902 33.0102 24.8608 32.722 25.2598 32.3509C25.6589 31.9799 25.9783 31.5336 26.1992 31.0385C26.42 30.5435 26.5378 30.0098 26.5455 29.469C26.5533 28.9282 26.4508 28.3914 26.2441 27.8904C26.0375 27.3894 25.731 26.9345 25.3426 26.5525C24.9543 26.1705 24.4922 25.8693 23.9836 25.6667C23.475 25.4641 22.9304 25.3643 22.3819 25.3732L22.3842 25.3698ZM22.5492 41.5015H34.961V38.7835H22.5492V41.5015Z" fill="#FF7645"/>
<rect x="18.1211" y="23.1719" width="21.0752" height="20.4672" fill="#FF7645"/>
<rect x="21.7695" y="23.1719" width="20.2646" height="20.2646" fill="#FF7645"/>
<path d="M30.3811 25.8063C30.6229 25.8063 30.8549 25.7252 31.0259 25.5809C31.1969 25.4366 31.293 25.241 31.293 25.0369V23.9412C31.293 23.7372 31.1969 23.5415 31.0259 23.3972C30.8549 23.2529 30.6229 23.1719 30.3811 23.1719C30.1392 23.1719 29.9072 23.2529 29.7362 23.3972C29.5652 23.5415 29.4692 23.7372 29.4692 23.9412V25.0369C29.4696 25.2408 29.5659 25.4363 29.7368 25.5805C29.9077 25.7247 30.1394 25.8059 30.3811 25.8063V25.8063Z" fill="#FFD062"/>
<path d="M27.342 25.8063C27.5839 25.8063 27.8158 25.7252 27.9868 25.5809C28.1578 25.4365 28.2539 25.2408 28.2539 25.0367V23.9415C28.2539 23.7374 28.1578 23.5416 27.9868 23.3973C27.8158 23.253 27.5839 23.1719 27.342 23.1719C27.1002 23.1719 26.8682 23.253 26.6972 23.3973C26.5262 23.5416 26.4301 23.7374 26.4301 23.9415V25.0367C26.4313 25.2405 26.5278 25.4356 26.6986 25.5797C26.8693 25.7238 27.1005 25.8052 27.342 25.8063Z" fill="#FFD062"/>
<path d="M28.6603 36.5455C35.0283 36.5455 40.2109 32.1714 40.2109 26.7957C40.2109 25.9553 39.8672 25.1492 39.2553 24.5549C38.6434 23.9606 37.8136 23.6267 36.9483 23.6267C36.083 23.6267 35.2531 23.9606 34.6412 24.5549C34.0293 25.1492 33.6856 25.9553 33.6856 26.7957C33.6856 28.6435 31.3842 30.205 28.6603 30.205C25.9365 30.205 23.6358 28.6451 23.6358 26.7957C23.6426 26.3753 23.5632 25.9578 23.4023 25.5675C23.2414 25.1772 23.0021 24.8219 22.6984 24.5222C22.3948 24.2226 22.0327 23.9847 21.6335 23.8222C21.2342 23.6598 20.8057 23.5762 20.3728 23.5762C19.9399 23.5762 19.5114 23.6598 19.1121 23.8222C18.7128 23.9847 18.3508 24.2226 18.0471 24.5222C17.7435 24.8219 17.5042 25.1772 17.3432 25.5675C17.1823 25.9578 17.1029 26.3753 17.1097 26.7957C17.1097 32.1714 22.2852 36.5455 28.6603 36.5455Z" fill="#FFD062"/>
</svg>
