<svg width="61" height="61" viewBox="0 0 61 61" fill="none" xmlns="http://www.w3.org/2000/svg">
<path d="M22.7001 45.986L15.9199 39.2058C14.9103 38.1961 14.7568 36.6162 15.5845 35.4527L14.4608 34.329C10.9617 30.8298 11.9987 24.891 16.4248 22.678C19.1442 21.3183 22.469 21.8311 24.6188 23.9809C26.1682 22.2076 26.1216 22.1135 27.8542 20.381C29.0303 19.2049 30.3035 18.1907 31.6248 17.3161C36.2221 14.2731 41.4019 12.92 45.0992 12.3184C47.8247 11.8749 50.031 14.0812 49.5875 16.8068C48.9859 20.5041 47.6328 25.6838 44.5898 30.2811C43.7152 31.6024 42.701 32.8756 41.525 34.0517C39.7924 35.7843 39.6984 35.7378 37.925 37.2871C40.0749 39.4369 40.5876 42.7617 39.2279 45.4811C37.0149 49.9072 31.0761 50.9443 27.5769 47.4451L26.4533 46.3214C25.2897 47.1491 23.7098 46.9957 22.7001 45.986Z" fill="#FF7645"/>
<path d="M31.6248 17.3161C30.3035 18.1907 29.0303 19.2049 27.8542 20.381C26.1216 22.1135 26.1682 22.2076 24.6188 23.9809M31.6248 17.3161C36.2221 14.2731 41.4019 12.92 45.0992 12.3184C47.8247 11.8749 50.031 14.0812 49.5875 16.8068C48.9859 20.5041 47.6328 25.6838 44.5898 30.2811M31.6248 17.3161L44.5898 30.2811M44.5898 30.2811C43.7152 31.6024 42.701 32.8756 41.525 34.0517C39.7924 35.7843 39.6984 35.7378 37.925 37.2871M15.5845 35.4527V35.4527C14.7568 36.6162 14.9103 38.1961 15.9199 39.2058L22.7001 45.986C23.7098 46.9957 25.2897 47.1491 26.4533 46.3214V46.3214M15.5845 35.4527L14.4608 34.329C10.9617 30.8298 11.9987 24.891 16.4248 22.678V22.678C19.1442 21.3183 22.469 21.8311 24.6188 23.9809V23.9809M15.5845 35.4527C17.3352 32.9915 20.596 28.5856 24.6188 23.9809M26.4533 46.3214L27.5769 47.4451C31.0761 50.9443 37.0149 49.9072 39.2279 45.4811V45.4811C40.5876 42.7617 40.0749 39.4369 37.925 37.2871V37.2871M26.4533 46.3214C28.9145 44.5708 33.3204 41.3099 37.925 37.2871" stroke="#FF7645"/>
<path d="M8.15219 53.7081C10.4035 44.598 14.5786 40.8548 17.7925 44.0679C21.0062 47.2812 17.2623 51.4569 8.15219 53.7081Z" fill="#FF7645" stroke="#FF7645"/>
<path d="M36.3134 19.8199C36.4933 19.7341 36.6387 19.5949 36.7176 19.4329C36.7965 19.2709 36.8024 19.0994 36.734 18.9561L36.3671 18.1867C36.2987 18.0435 36.1617 17.9401 35.9862 17.8995C35.8107 17.8588 35.611 17.8842 35.4311 17.97C35.2512 18.0558 35.1058 18.195 35.0269 18.357C34.948 18.519 34.9421 18.6905 35.0105 18.8338L35.3774 19.6032C35.4461 19.7462 35.5831 19.8493 35.7586 19.89C35.934 19.9306 36.1335 19.9054 36.3134 19.8199V19.8199Z" fill="#FFD062"/>
<path d="M34.0947 20.8785C34.2746 20.7927 34.4199 20.6535 34.4988 20.4915C34.5777 20.3294 34.5836 20.1579 34.5152 20.0146L34.1484 19.2455C34.08 19.1022 33.943 18.9988 33.7674 18.9581C33.5919 18.9175 33.3922 18.9428 33.2123 19.0286C33.0324 19.1144 32.8871 19.2536 32.8082 19.4157C32.7293 19.5777 32.7234 19.7492 32.7918 19.8926L33.1586 20.6616C33.2278 20.8043 33.3649 20.9071 33.5402 20.9477C33.7155 20.9883 33.9147 20.9635 34.0947 20.8785Z" fill="#FFD062"/>
<path d="M40.2039 28.5276C43.8779 26.7752 45.6609 22.8184 44.1775 19.7084C43.9456 19.2221 43.5248 18.8504 43.0078 18.6749C42.4908 18.4994 41.9199 18.5346 41.4206 18.7728C40.9214 19.0109 40.5347 19.4324 40.3457 19.9446C40.1567 20.4569 40.1808 21.0178 40.4128 21.504C40.9227 22.5731 40.0258 24.1098 38.4543 24.8594C36.8828 25.6089 35.125 25.3395 34.6146 24.2696C34.5025 24.0245 34.3415 23.8048 34.141 23.6233C33.9404 23.4418 33.7043 23.302 33.4464 23.2123C33.1885 23.1225 32.914 23.0844 32.6388 23.1003C32.3637 23.1162 32.0933 23.1858 31.8436 23.3049C31.5939 23.424 31.3697 23.5903 31.1842 23.7942C30.9986 23.998 30.8554 24.2353 30.7629 24.4922C30.6704 24.7492 30.6304 25.0206 30.6452 25.2907C30.6601 25.5608 30.7295 25.8242 30.8494 26.0655C32.3328 29.1756 36.5258 30.282 40.2039 28.5276Z" fill="#FFD062"/>
</svg>
