<svg width="58" height="58" viewBox="0 0 58 58" fill="none" xmlns="http://www.w3.org/2000/svg">
<path d="M29.5491 35.9864L30.1725 38.9647C30.56 37.7748 28.0532 37.593 28.0532 36.6248C28.0532 34.3466 27.4718 40.6518 26.8517 38.9647C26.9832 37.4666 26.9746 38.7119 26.9243 37.1985C26.9115 36.7976 26.8765 36.3975 26.8517 35.9864C26.7737 34.69 26.4259 34.1878 25.866 33.8627C25.3923 33.5869 24.0729 34.8449 23.6163 34.5385C23.5374 34.4739 23.4411 34.4341 23.3395 34.4239C23.2379 34.4138 23.1356 34.4338 23.0454 34.4815C19.0948 36.1992 14.7797 33.4345 14.7328 29.1539C14.7373 29.0399 14.7155 28.9265 14.669 28.8223C14.6225 28.7181 14.5527 28.6259 14.4648 28.5529C13.8196 27.9666 13.3138 27.2439 12.9843 26.4377C12.6549 25.6315 12.5101 24.7621 12.5606 23.893C12.611 23.0239 12.8555 22.177 13.276 21.4141C13.6966 20.6512 14.2826 19.9916 14.9914 19.4835C15.0893 19.4245 15.1685 19.3391 15.2198 19.2371C15.2712 19.1351 15.2926 19.0208 15.2816 18.9072C15.192 16.0379 17.323 13.4502 20.1522 13.0042C20.7274 12.914 21.318 12.9191 21.9017 12.8859C22.4454 10.4855 23.8416 8.79422 26.2671 8.20434C29.104 7.51403 31.3024 8.6044 32.9103 10.9963C33.0315 10.9375 33.1493 10.883 33.2645 10.826C36.2149 9.32281 39.8642 10.5707 41.2323 13.5668C41.3859 13.9073 41.5736 14.0452 41.9355 14.1074C45.3493 14.7032 47.523 18.2782 46.469 21.5715C46.3726 21.8728 46.4195 22.0634 46.609 22.3052C48.8092 25.1013 47.9045 29.3828 44.7365 31.0129C44.192 31.2929 43.9522 31.5968 43.8131 32.1858C43.1406 35.0279 40.4906 36.8759 37.5829 36.6248C36.6414 36.5444 35.3468 35.1893 34.5442 34.6917C32.9402 34.6917 33.5641 35.3939 32.8873 35.9864C32.8873 35.5906 34.6347 38.4038 34.5442 38.9647C34.2353 40.8731 30.9647 34.723 31.2529 38.2086C31.5423 39.3449 29.0215 34.4092 29.5491 35.9864ZM33.7348 34.69C32.9103 33.7733 32.4623 32.7238 32.2626 31.5942C31.6105 31.6879 31.3007 32.0317 31.2529 32.6344C31.5766 28.5529 34.6787 22.8732 32.8873 27.0347C34.0539 24.3245 33.2893 31.2044 33.2645 31.8853C33.2398 32.522 36.9096 29.9633 34.9296 33.3153C35.6798 33.0489 33.1092 35.2305 33.7348 34.6917V34.69ZM26.2671 23.893C26.8167 24.9715 25.3829 20.5893 26.1348 21.4141C26.5615 21.8814 29.311 27.6305 29.5491 27.0347C29.5491 21.4631 29.9335 33.02 30.1725 32.2428C28.9833 32.3824 27.3446 24.4139 26.2671 23.893ZM23.6163 29.1539C23.2254 28.3359 24.0241 31.7985 23.6495 31.0129L21.9017 26.4377C22.5871 26.8463 23.9799 18.7901 26.2671 23.893L23.6163 29.1539Z" fill="#FF7645"/>
<path d="M27.2761 46.3409C27.2761 43.3975 26.501 41.8871 25.1445 41.8871L27.2761 38.9824V46.3409Z" fill="#FF7645"/>
<path d="M31.927 45.9542C31.927 43.0108 33.1191 42.2709 34.0586 41.8877L31.927 38.5957V45.9542Z" fill="#FF7645"/>
<ellipse cx="24.7304" cy="33.2343" rx="5.64445" ry="5.04677" fill="#FF7645"/>
<ellipse cx="34.2382" cy="33.2343" rx="5.64445" ry="5.04677" fill="#FF7645"/>
<ellipse cx="41.6175" cy="27.2901" rx="7.36363" ry="7.3585" fill="#FF7645"/>
<ellipse cx="37.7425" cy="31.9386" rx="7.36364" ry="7.35849" fill="#FF7645"/>
<path d="M32.2 41.5028C32.2632 40.3566 31.3509 39.3926 30.203 39.3926H28.975C27.838 39.3926 26.9297 40.3392 26.9767 41.4753L27.2763 48.7145C27.3206 49.786 28.2022 50.6318 29.2746 50.6318H29.8036C30.8654 50.6318 31.7421 49.8021 31.8006 48.742L32.2 41.5028Z" fill="#FF7645"/>
<ellipse cx="17.7823" cy="25.8276" rx="6.7823" ry="6.97608" fill="#FF7645"/>
<ellipse cx="20.4932" cy="28.1519" rx="6.7823" ry="6.97608" fill="#FF7645"/>
<ellipse cx="24.7589" cy="35.1304" rx="6.7823" ry="6.97608" fill="#FF7645"/>
<ellipse cx="34.4503" cy="35.1304" rx="6.7823" ry="6.97608" fill="#FF7645"/>
<ellipse cx="39.8721" cy="32.8022" rx="6.7823" ry="6.97608" fill="#FF7645"/>
<path d="M26.1154 31.2534C26.1154 35.1062 23.0788 38.2295 19.3331 38.2295C15.5873 38.2295 12.5508 35.1062 12.5508 31.2534C12.5508 27.4006 15.5873 24.2773 19.3331 24.2773C23.0788 24.2773 26.1154 27.4006 26.1154 31.2534Z" fill="#FF7645"/>
<path d="M31.2491 17.8824C31.4804 17.8824 31.7022 17.8049 31.8657 17.6669C32.0292 17.529 32.1211 17.3418 32.1211 17.1467V16.099C32.1211 15.9039 32.0292 15.7167 31.8657 15.5788C31.7022 15.4408 31.4804 15.3633 31.2491 15.3633C31.0178 15.3633 30.796 15.4408 30.6325 15.5788C30.4689 15.7167 30.3771 15.9039 30.3771 16.099V17.1467C30.3775 17.3417 30.4695 17.5286 30.633 17.6665C30.7964 17.8044 31.018 17.882 31.2491 17.8824V17.8824Z" fill="#FFD062"/>
<path d="M28.3429 17.8824C28.5741 17.8824 28.7959 17.8049 28.9594 17.6669C29.1229 17.5289 29.2148 17.3417 29.2148 17.1465V16.0992C29.2148 15.904 29.1229 15.7168 28.9594 15.5788C28.7959 15.4408 28.5741 15.3633 28.3429 15.3633C28.1116 15.3633 27.8898 15.4408 27.7262 15.5788C27.5627 15.7168 27.4708 15.904 27.4708 16.0992V17.1465C27.472 17.3414 27.5643 17.528 27.7275 17.6658C27.8908 17.8036 28.1119 17.8814 28.3429 17.8824Z" fill="#FFD062"/>
<path d="M29.6032 28.1519C35.6925 28.1519 40.6484 23.9692 40.6484 18.8287C40.6484 18.025 40.3197 17.2542 39.7346 16.6859C39.1495 16.1176 38.356 15.7983 37.5285 15.7983C36.7011 15.7983 35.9075 16.1176 35.3224 16.6859C34.7373 17.2542 34.4086 18.025 34.4086 18.8287C34.4086 20.5956 32.2079 22.0888 29.6032 22.0888C26.9985 22.0888 24.7985 20.5971 24.7985 18.8287C24.805 18.4267 24.7291 18.0274 24.5752 17.6542C24.4213 17.281 24.1925 16.9412 23.9021 16.6547C23.6117 16.3682 23.2656 16.1406 22.8838 15.9853C22.5019 15.83 22.0922 15.75 21.6782 15.75C21.2643 15.75 20.8545 15.83 20.4727 15.9853C20.0909 16.1406 19.7447 16.3682 19.4543 16.6547C19.1639 16.9412 18.9351 17.281 18.7812 17.6542C18.6273 18.0274 18.5514 18.4267 18.5579 18.8287C18.5579 23.9692 23.507 28.1519 29.6032 28.1519Z" fill="#FFD062"/>
</svg>
