<svg width="49" height="36" viewBox="0 0 49 36" fill="none" xmlns="http://www.w3.org/2000/svg">
<path d="M17.3464 25.8312C14.898 23.395 12.7678 21.2607 10.6295 19.1346C9.32774 17.8431 8.08515 16.4822 6.69565 15.2926C6.16137 14.826 5.51332 14.5087 4.81705 14.3729C4.12079 14.2371 3.40101 14.2877 2.73054 14.5194C2.06006 14.7511 1.46268 15.1557 0.998814 15.6924C0.53495 16.2291 0.221063 16.8788 0.0889081 17.5758C-0.237552 19.1408 0.360279 20.418 1.4682 21.5198C5.53808 25.5666 9.60115 29.6195 13.6574 33.6785C16.0426 36.0596 18.1973 36.0514 20.5947 33.6519C29.3221 24.9463 38.0461 16.2407 46.7666 7.53511C47.1391 7.18665 47.4804 6.80638 47.7868 6.39862C48.7213 5.05809 48.8458 3.62167 48.0766 2.17708C47.3073 0.732495 46.0647 0.00816151 44.4263 0C43.0695 0 42.0656 0.699849 41.1474 1.61802C33.4416 9.3184 25.7317 17.0201 18.0177 24.7232C17.7341 25.0048 17.5872 25.419 17.3464 25.8312Z" fill="white"/>
</svg>
