<svg width="75" height="75" viewBox="0 0 75 75" fill="none" xmlns="http://www.w3.org/2000/svg">
<g clip-path="url(#clip0)">
<path d="M39.6973 74.8698H35.3027C35.1174 74.8163 34.9284 74.7762 34.7373 74.7497C29.4785 74.3937 24.498 73.0124 19.8911 70.4753C9.3252 64.6525 2.8623 55.8049 0.585938 43.9528C0.312012 42.5275 0.188965 41.0729 0 39.6315V35.2458C0.0549951 35.0382 0.0965846 34.8273 0.124511 34.6144C0.489258 29.3908 1.84277 24.4235 4.40771 19.8664C11.3115 7.59685 21.8525 0.931819 35.9282 0.0660964C42.6914 -0.348454 49.1455 1.13543 55.0928 4.39764C65.6748 10.2033 72.1152 19.0446 74.4141 30.9216C74.688 32.3483 74.811 33.8029 75 35.2458V39.6315C74.9451 39.8386 74.9036 40.049 74.8755 40.2614C74.5107 45.4836 73.1294 50.4318 70.6055 55.008C64.7739 65.5549 55.9102 72.0075 44.0376 74.2795C42.6035 74.5534 41.1431 74.6764 39.6973 74.8698ZM37.4722 5.85662C20.0142 5.88006 5.86816 20.007 5.85938 37.4284C5.85059 54.8498 20.0684 69.0441 37.5264 69.0265C54.9844 69.009 69.1318 54.8703 69.1406 37.4474C69.1494 20.0246 54.939 5.83318 37.4722 5.85662Z" fill="white"/>
<path d="M32.5199 43.2715C30.7621 41.5225 29.2328 39.9902 27.6976 38.4639C26.763 37.5366 25.871 36.5596 24.8734 35.7056C24.4898 35.3705 24.0246 35.1428 23.5247 35.0453C23.0248 34.9478 22.5081 34.9841 22.0267 35.1504C21.5454 35.3168 21.1165 35.6073 20.7835 35.9926C20.4505 36.3779 20.2251 36.8444 20.1302 37.3447C19.8959 38.4683 20.3251 39.3853 21.1205 40.1763C24.0423 43.0815 26.9593 45.9912 29.8714 48.9053C31.5838 50.6147 33.1307 50.6089 34.8519 48.8862C41.1175 42.6362 47.3807 36.3862 53.6415 30.1362C53.9089 29.8861 54.1539 29.6131 54.3739 29.3203C55.0448 28.3579 55.1341 27.3267 54.5819 26.2896C54.0296 25.2524 53.1376 24.7324 51.9613 24.7266C50.9872 24.7266 50.2665 25.229 49.6073 25.8882C44.0751 31.4165 38.5399 36.9458 33.0018 42.4761C32.7982 42.6782 32.6927 42.9756 32.5199 43.2715Z" fill="white"/>
<path d="M32.5199 43.2711C32.6957 42.9782 32.8011 42.6852 33.0047 42.4757C38.5331 36.9347 44.0677 31.403 49.6087 25.8805C50.2679 25.2213 50.9886 24.7086 51.9628 24.7189C53.1346 24.7189 54.0326 25.2506 54.5834 26.2819C55.1341 27.3131 55.0462 28.3502 54.3754 29.3127C54.1554 29.6054 53.9103 29.8784 53.6429 30.1286C47.3841 36.3834 41.1244 42.6359 34.8636 48.8859C33.138 50.6085 31.5912 50.6144 29.8832 48.9049C26.9593 45.9958 24.0384 43.0841 21.1205 40.1701C20.3251 39.3791 19.8959 38.4621 20.1302 37.3385C20.2254 36.8387 20.4508 36.3728 20.7836 35.988C21.1164 35.6031 21.5449 35.3129 22.0258 35.1466C22.5067 34.9803 23.0229 34.9439 23.5224 35.0409C24.0218 35.138 24.4869 35.3651 24.8705 35.6994C25.868 36.5534 26.7601 37.5304 27.6947 38.4577C29.2298 39.9899 30.7621 41.5221 32.5199 43.2711Z" fill="white"/>
</g>
<defs>
<clipPath id="clip0">
<rect width="75" height="74.8711" fill="white"/>
</clipPath>
</defs>
</svg>
