<svg width="122" height="97" viewBox="0 0 122 97" fill="none" xmlns="http://www.w3.org/2000/svg">
<path fill-rule="evenodd" clip-rule="evenodd" d="M95.285 12.3889C105.623 20.3683 114.425 32.0585 120.746 46.6785C121.218 47.7883 121.218 49.0859 120.746 50.1427C108.104 79.3829 85.597 96.88 60.55 96.88H60.4909C35.503 96.88 12.9961 79.3829 0.354439 50.1427C-0.118146 49.0859 -0.118146 47.7883 0.354439 46.6785C12.9961 17.4325 35.503 0 60.4909 0H60.55C73.0735 0 84.9472 4.34492 95.285 12.3889ZM36.9218 48.4392C36.9218 61.3565 47.4959 71.8665 60.5511 71.8665C73.5472 71.8665 84.1213 61.3565 84.1213 48.4392C84.1213 35.4631 73.5472 24.9531 60.5511 24.9531C47.4959 24.9531 36.9218 35.4631 36.9218 48.4392Z" fill="white" fill-opacity="0.5"/>
<path d="M75.2666 48.421C75.2666 56.465 68.6504 63.0411 60.5574 63.0411C52.4053 63.0411 45.7891 56.465 45.7891 48.421C45.7891 47.4228 45.9072 46.4892 46.0844 45.5498H46.3798C52.9369 45.5498 58.2535 40.3829 58.4898 33.9183C59.1396 33.8068 59.8485 33.7422 60.5574 33.7422C68.6504 33.7422 75.2666 40.3183 75.2666 48.421" fill="white" fill-opacity="0.9"/>
</svg>
