<svg width="73" height="73" viewBox="0 0 73 73" fill="none" xmlns="http://www.w3.org/2000/svg">
<path d="M34.2282 0H38.7794C38.9874 0.0422648 39.1922 0.0942845 39.4003 0.123545C40.8079 0.318613 42.235 0.448658 43.6264 0.712C63.0047 4.52883 75.8455 23.2456 72.4581 42.7069C71.0506 50.9026 66.8842 58.3709 60.6497 63.8732C54.4153 69.3755 46.4875 72.5812 38.1812 72.9588C29.1243 73.3521 20.9517 70.7512 13.8584 65.0942C6.62197 59.33 2.15531 51.8524 0.54614 42.7232C0.31533 41.4227 0.182047 40.0963 0 38.7828V34.2312C0.0585153 33.7663 0.123532 33.2981 0.172295 32.83C1.03377 24.9395 4.05706 17.995 9.38195 12.1105C14.8182 5.97816 22.1971 1.90103 30.2816 0.56245C31.595 0.325117 32.9148 0.17231 34.2282 0ZM24.4074 32.8787C22.2618 33.5615 21.0265 34.9595 21.007 37.2093C20.968 41.7609 20.968 46.3211 21.007 50.89C21.007 53.3902 22.8274 55.2401 25.3273 55.2498C32.7848 55.2823 40.2422 55.2823 47.6997 55.2498C50.1996 55.2498 52.0006 53.3934 52.0168 50.89C52.0461 46.3385 52.0363 41.7869 52.0168 37.2093C52.0387 36.2866 51.7606 35.3817 51.2242 34.6307C50.6878 33.8797 49.9221 33.3231 49.0423 33.0446C48.909 32.9958 48.7822 32.9373 48.6067 32.869C48.6067 30.7102 48.6489 28.5482 48.6067 26.3895C48.5243 23.2302 47.209 20.2287 44.9422 18.0268C42.6754 15.8249 39.637 14.5976 36.477 14.6074C33.317 14.6172 30.2862 15.8632 28.0331 18.0791C25.7799 20.2949 24.4832 23.3046 24.4204 26.4642C24.3814 28.61 24.4074 30.7362 24.4074 32.8787Z" fill="white"/>
<path d="M24.4072 32.8788C24.4072 30.7363 24.3812 28.6003 24.4072 26.4643C24.47 23.3047 25.7667 20.295 28.0199 18.0792C30.273 15.8633 33.3038 14.6172 36.4638 14.6075C39.6238 14.5977 42.6622 15.825 44.929 18.0269C47.1958 20.2288 48.5111 23.2303 48.5935 26.3896C48.6422 28.5483 48.5935 30.7103 48.5935 32.8691C48.769 32.9374 48.8958 32.9959 49.0291 33.0447C49.9089 33.3232 50.6746 33.8798 51.211 34.6308C51.7474 35.3818 52.0255 36.2867 52.0036 37.2094C52.0199 41.761 52.0296 46.3288 52.0036 50.8901C51.9874 53.3935 50.1864 55.2402 47.6865 55.2499C40.2291 55.2868 32.7716 55.2868 25.3142 55.2499C22.8143 55.2499 21.01 53.3903 20.9938 50.8901C20.9656 46.3386 20.9656 41.7783 20.9938 37.2094C21.0263 34.9596 22.2616 33.5616 24.4072 32.8788ZM42.2446 32.7813C42.2446 30.5055 42.3584 28.2655 42.2153 26.0515C42.0268 23.1027 39.4651 20.8854 36.5003 20.8919C33.5356 20.8984 30.9739 23.1222 30.7951 26.071C30.6553 28.22 30.7431 30.3885 30.7333 32.5472C30.7453 32.6288 30.7706 32.7079 30.8081 32.7813H42.2446ZM38.3891 50.565C38.3891 49.3589 38.3891 48.2047 38.3891 47.0473C38.3699 46.8527 38.4028 46.6564 38.4845 46.4788C38.5662 46.3011 38.6937 46.1483 38.8539 46.0362C39.2654 45.7157 39.6056 45.313 39.8528 44.8537C40.1001 44.3945 40.2489 43.8887 40.2899 43.3688C40.3309 42.8488 40.2631 42.326 40.0909 41.8336C39.9186 41.3413 39.6457 40.8903 39.2896 40.5093C38.9313 40.1287 38.4986 39.826 38.0183 39.6199C37.5381 39.4137 37.0205 39.3086 36.4979 39.3111C35.9753 39.3135 35.4588 39.4234 34.9805 39.6341C34.5022 39.8447 34.0723 40.1514 33.7176 40.5353C33.3637 40.9193 33.0938 41.3729 32.9252 41.8672C32.7567 42.3615 32.6932 42.8855 32.7388 43.4058C32.7844 43.926 32.9381 44.431 33.19 44.8884C33.442 45.3459 33.7866 45.7456 34.202 46.0622C34.3532 46.1669 34.4736 46.3101 34.5508 46.4771C34.6279 46.644 34.659 46.8285 34.6408 47.0115C34.6213 48.1885 34.6408 49.3621 34.6408 50.5683L38.3891 50.565Z" fill="#FF9767"/>
<path d="M42.2439 32.78H30.8074C30.7699 32.7066 30.7447 32.6275 30.7326 32.546C30.7326 30.3872 30.6546 28.2187 30.7944 26.0697C30.9895 23.1209 33.5316 20.8971 36.4996 20.8906C39.4677 20.8841 42.0261 23.1014 42.2146 26.0502C42.3577 28.2642 42.2439 30.4977 42.2439 32.78Z" fill="white"/>
<path d="M38.3886 50.5639H34.6273C34.6273 49.3577 34.6273 48.1841 34.6273 47.0072C34.6455 46.8241 34.6144 46.6396 34.5373 46.4727C34.4601 46.3057 34.3397 46.1625 34.1885 46.0578C33.7731 45.7413 33.4285 45.3415 33.1765 44.8841C32.9246 44.4266 32.7709 43.9216 32.7253 43.4014C32.6797 42.8811 32.7432 42.3571 32.9117 41.8628C33.0803 41.3685 33.3502 40.9149 33.7041 40.5309C34.0588 40.147 34.4887 39.8403 34.967 39.6297C35.4453 39.4191 35.9618 39.3091 36.4844 39.3067C37.007 39.3042 37.5246 39.4094 38.0048 39.6155C38.4851 39.8216 38.9178 40.1244 39.2761 40.5049C39.6322 40.8859 39.9051 41.3369 40.0774 41.8293C40.2496 42.3216 40.3174 42.8444 40.2764 43.3644C40.2354 43.8843 40.0866 44.3901 39.8393 44.8493C39.5921 45.3086 39.2519 45.7113 38.8404 46.0318C38.6802 46.1439 38.5527 46.2967 38.471 46.4744C38.3893 46.6521 38.3564 46.8483 38.3756 47.0429C38.4048 48.2036 38.3886 49.3577 38.3886 50.5639Z" fill="white"/>
</svg>
