<svg width="22" height="23" viewBox="0 0 22 23" fill="none" xmlns="http://www.w3.org/2000/svg">
<path d="M21.7098 13.7964L20.0097 12.4211C20.1727 11.4813 20.1727 10.5225 20.0097 9.58262L21.7088 8.20732C21.8371 8.10361 21.9289 7.96532 21.972 7.81092C22.0152 7.65652 22.0075 7.49334 21.9501 7.34317L21.9268 7.27955C21.4591 6.04195 20.7587 4.89468 19.8594 3.8932L19.8128 3.84151C19.7036 3.72022 19.5582 3.63303 19.3957 3.5914C19.2332 3.54977 19.0612 3.55564 18.9023 3.60824L16.7939 4.31821C16.0195 3.7159 15.1458 3.23828 14.2076 2.90446L13.803 0.816547C13.7722 0.659517 13.6917 0.515062 13.5722 0.402319C13.4527 0.289577 13.2998 0.213868 13.1338 0.185224L13.0634 0.173295C11.6996 -0.0577651 10.3033 -0.0577651 8.93946 0.173295L8.86946 0.185224C8.70348 0.213868 8.55061 0.289577 8.43111 0.402319C8.3116 0.515062 8.2311 0.659517 8.20026 0.816547L7.79053 2.9133C6.85938 3.24735 5.99234 3.72358 5.22387 4.32307L3.09961 3.60824C2.94023 3.55483 2.76743 3.54876 2.60431 3.59084C2.4412 3.63292 2.29554 3.72115 2.18681 3.84372L2.14015 3.89541C1.24193 4.89757 0.541651 6.04466 0.0728181 7.28176L0.0494848 7.34538C-0.00751744 7.4956 -0.0149696 7.65866 0.0281155 7.81298C0.0712005 7.9673 0.16279 8.10559 0.290751 8.20953L2.01041 9.59941C1.85109 10.5282 1.85109 11.4752 2.01041 12.4039L0.290751 13.7938C0.162466 13.8975 0.0706413 14.0358 0.027533 14.1902C-0.0155753 14.3446 -0.00791771 14.5078 0.0494848 14.6579L0.0728181 14.7216C0.540945 15.959 1.2413 17.1062 2.14015 18.1079L2.18681 18.1596C2.29601 18.2809 2.44139 18.3681 2.60389 18.4097C2.76638 18.4513 2.93837 18.4455 3.09728 18.3929L5.22154 17.6781C5.98953 18.2782 6.85669 18.7545 7.7882 19.0878L8.19793 21.1846C8.22877 21.3416 8.30927 21.4861 8.42877 21.5988C8.54828 21.7115 8.70115 21.7872 8.86713 21.8159L8.93713 21.8278C10.3008 22.0602 11.6974 22.0602 13.061 21.8278L13.1315 21.8159C13.2982 21.7875 13.4518 21.7117 13.5718 21.5985C13.6918 21.4853 13.7725 21.3401 13.803 21.1824L14.21 19.0953C15.1486 18.7624 16.0225 18.2847 16.7962 17.6816L18.9046 18.3915C19.0633 18.4444 19.2352 18.4503 19.3976 18.4086C19.5599 18.3668 19.705 18.2794 19.8137 18.1578L19.8604 18.1061C20.7586 17.104 21.4588 15.9569 21.9277 14.7198L21.951 14.6562C22.0075 14.5067 22.0147 14.3444 21.9717 14.191C21.9286 14.0375 21.8372 13.9001 21.7098 13.7969V13.7964ZM18.1692 9.87244C18.3005 10.6219 18.3005 11.3867 18.1692 12.1362L17.9979 13.1214L19.9355 14.6906C19.6418 15.3311 19.2712 15.9374 18.8309 16.4976L16.4238 15.69L15.609 16.3231C14.9935 16.8024 14.2987 17.1823 13.5524 17.4474L12.564 17.7987L12.1002 20.1808C11.3675 20.259 10.6279 20.259 9.89519 20.1808L9.42852 17.7951L8.44853 17.439C7.70795 17.1731 7.01841 16.794 6.40733 16.3169L5.593 15.6811L3.17241 16.4949C2.73347 15.9337 2.36277 15.3274 2.06735 14.6875L4.02734 13.1037L3.85887 12.1216C3.79573 11.7522 3.76358 11.3786 3.76274 11.0043C3.76209 10.63 3.79425 10.2563 3.85887 9.88702L4.02734 8.90491L2.06735 7.32108C2.36106 6.68039 2.73187 6.07393 3.17241 5.5137L5.59487 6.32925L6.4092 5.69307C7.02028 5.21596 7.70981 4.83689 8.45039 4.57091L9.43366 4.21748L9.90032 1.83179C10.6328 1.75315 11.3724 1.75315 12.1048 1.83179L12.5715 4.2135L13.5599 4.56473C14.3058 4.83042 15.0006 5.21026 15.6165 5.68909L16.4308 6.32307L18.8379 5.51502C19.2768 6.07625 19.6475 6.68254 19.943 7.3224L18.003 8.89254L18.1692 9.87244ZM11.0031 6.43705C10.1001 6.43705 9.2174 6.69054 8.46661 7.16548C7.71583 7.64041 7.13067 8.31545 6.78514 9.10524C6.43961 9.89502 6.34923 10.7641 6.52542 11.6025C6.70162 12.4409 7.13647 13.211 7.775 13.8154C8.41353 14.4199 9.22705 14.8315 10.1127 14.9982C10.9983 15.1649 11.9163 15.0793 12.7505 14.7521C13.5847 14.4249 14.2977 13.8708 14.7993 13.16C15.3009 12.4492 15.5685 11.6135 15.5684 10.7587C15.5683 9.61247 15.0873 8.51325 14.2311 7.7028C13.3749 6.89235 12.2138 6.43705 11.0031 6.43705ZM13.0564 12.7035C12.5806 13.1544 11.9544 13.4352 11.2844 13.498C10.6145 13.5608 9.94224 13.4016 9.38235 13.0477C8.82246 12.6937 8.40958 12.1669 8.21408 11.557C8.01859 10.9471 8.05258 10.2919 8.31028 9.70307C8.56797 9.11424 9.03341 8.62826 9.62724 8.32796C10.2211 8.02767 10.9065 7.93165 11.5668 8.05628C12.227 8.18092 12.8212 8.51848 13.248 9.01143C13.6747 9.50438 13.9077 10.1222 13.9071 10.7596C13.9077 11.1207 13.8328 11.4783 13.6868 11.8119C13.5408 12.1455 13.3265 12.4485 13.0564 12.7035Z" fill="white"/>
</svg>
