<svg width="346" height="493" viewBox="0 0 346 493" fill="none" xmlns="http://www.w3.org/2000/svg">
<path d="M294 491L344 491L344 436" stroke="white" stroke-width="3"/>
<path d="M52 491L2 491L2 436" stroke="white" stroke-width="3"/>
<path d="M294 2L344 2L344 57" stroke="white" stroke-width="3"/>
<path d="M53 2L3 2L3 57" stroke="white" stroke-width="3"/>
<path d="M331.041 221.206C331.498 226.486 331.795 231.828 331.925 237.223L330.429 237.251L330.457 238.751C330.485 240.329 330.5 241.912 330.5 243.5C330.5 245.088 330.485 246.671 330.457 248.249L330.429 249.749L331.925 249.776C331.795 255.172 331.498 260.513 331.041 265.794L329.552 265.657L329.414 267.15C329.122 270.309 328.772 273.445 328.366 276.557L328.172 278.045L329.655 278.238C328.924 283.585 328.028 288.86 326.974 294.054L325.51 293.747L325.203 295.216C324.552 298.32 323.845 301.395 323.082 304.438L322.718 305.893L324.168 306.257C322.823 311.485 321.314 316.619 319.65 321.651L318.233 321.172L317.753 322.593C316.737 325.598 315.666 328.565 314.54 331.492L314.001 332.892L315.397 333.429C313.424 338.457 311.291 343.367 309.007 348.147L307.663 347.494L307.007 348.843C305.619 351.695 304.178 354.5 302.683 357.255L301.968 358.573L303.282 359.286C300.672 364.018 297.906 368.602 294.994 373.026L293.752 372.196L292.918 373.442C291.155 376.077 289.34 378.654 287.474 381.169L286.581 382.374L287.781 383.264C284.528 387.579 281.126 391.713 277.585 395.651L276.483 394.644L275.47 395.751C273.334 398.088 271.149 400.353 268.916 402.545L267.845 403.595L268.891 404.661C265.006 408.408 260.982 411.935 256.83 415.228L255.913 414.049L254.729 414.97C252.235 416.91 249.696 418.764 247.114 420.53L245.876 421.377L246.718 422.609C242.242 425.607 237.639 428.343 232.924 430.803L232.248 429.473L230.911 430.152C228.103 431.579 225.257 432.906 222.374 434.132L220.993 434.718L221.577 436.091C216.624 438.132 211.564 439.876 206.412 441.305L206.03 439.863L204.58 440.248C201.551 441.051 198.49 441.744 195.401 442.324L193.926 442.601L194.201 444.066C188.968 444.986 183.653 445.585 178.27 445.847L178.215 444.357L176.716 444.413C175.15 444.471 173.578 444.5 172 444.5C170.422 444.5 168.85 444.471 167.284 444.413L165.785 444.357L165.73 445.847C160.347 445.585 155.032 444.986 149.799 444.066L150.074 442.601L148.599 442.324C145.51 441.744 142.449 441.051 139.42 440.248L137.97 439.863L137.588 441.305C132.436 439.876 127.376 438.132 122.423 436.091L123.007 434.718L121.626 434.132C118.743 432.907 115.897 431.579 113.089 430.152L111.752 429.473L111.076 430.803C106.361 428.343 101.758 425.607 97.2818 422.609L98.1244 421.377L96.8863 420.53C94.3044 418.764 91.7651 416.91 89.271 414.97L88.087 414.049L87.1704 415.228C83.018 411.935 78.9936 408.408 75.1086 404.661L76.1548 403.595L75.0842 402.545C72.8515 400.353 70.6658 398.088 68.5295 395.751L67.5175 394.644L66.415 395.651C62.8743 391.713 59.4723 387.579 56.2194 383.264L57.4195 382.374L56.5259 381.169C54.6604 378.654 52.8452 376.077 51.0825 373.442L50.2485 372.196L49.0064 373.026C46.0942 368.602 43.3283 364.018 40.718 359.286L42.0319 358.573L41.3167 357.255C39.8223 354.5 38.3806 351.695 36.9935 348.843L36.3374 347.494L34.9931 348.147C32.7086 343.367 30.5759 338.457 28.6035 333.429L29.9988 332.892L29.4603 331.492C28.3343 328.565 27.2626 325.598 26.2471 322.593L25.7668 321.172L24.3503 321.651C22.6858 316.619 21.1771 311.485 19.832 306.257L21.2825 305.893L20.9177 304.438C20.1549 301.395 19.4476 298.32 18.7974 295.216L18.4899 293.747L17.0263 294.054C15.9715 288.86 15.0755 283.585 14.3452 278.238L15.8282 278.045L15.634 276.557C15.2278 273.445 14.878 270.309 14.586 267.15L14.4479 265.657L12.9586 265.794C12.5017 260.514 12.2052 255.172 12.0754 249.777L13.5708 249.749L13.5434 248.249C13.5145 246.671 13.5 245.088 13.5 243.5C13.5 241.912 13.5145 240.329 13.5434 238.751L13.5708 237.251L12.0754 237.224C12.2052 231.828 12.5017 226.487 12.9586 221.206L14.4479 221.343L14.586 219.85C14.878 216.691 15.2278 213.555 15.634 210.443L15.8282 208.955L14.3452 208.762C15.0755 203.415 15.9715 198.14 17.0263 192.946L18.4899 193.253L18.7974 191.784C19.4476 188.68 20.1548 185.605 20.9177 182.562L21.2824 181.107L19.832 180.743C21.1771 175.515 22.6858 170.381 24.3503 165.349L25.7668 165.828L26.2471 164.407C27.2626 161.402 28.3343 158.435 29.4603 155.508L29.9988 154.108L28.6035 153.571C30.5759 148.543 32.7086 143.633 34.9931 138.853L36.3374 139.506L36.9934 138.157C38.3806 135.305 39.8223 132.5 41.3167 129.745L42.0319 128.427L40.718 127.714C43.3283 122.982 46.0942 118.398 49.0064 113.974L50.2485 114.804L51.0825 113.558C52.8452 110.923 54.6604 108.346 56.5259 105.831L57.4195 104.626L56.2194 103.736C59.4723 99.421 62.8743 95.2874 66.415 91.3486L67.5175 92.3564L68.5295 91.2493C70.6658 88.9123 72.8514 86.6467 75.0842 84.4553L76.1547 83.4046L75.1086 82.3387C78.9935 78.5917 83.018 75.0646 87.1704 71.7721L88.0869 72.9505L89.271 72.0297C91.7651 70.09 94.3044 68.2356 96.8863 66.4696L98.1244 65.6228L97.2817 64.3908C101.758 61.3933 106.361 58.6568 111.076 56.1973L111.752 57.5274L113.089 56.8478C115.897 55.4211 118.743 54.0935 121.626 52.8683L123.007 52.2817L122.423 50.9087C127.376 48.8677 132.436 47.1242 137.588 45.695L137.97 47.1366L139.42 46.7523C142.449 45.9494 145.51 45.2562 148.599 44.6762L150.074 44.3994L149.799 42.9338C155.032 42.0143 160.347 41.4152 165.73 41.1527L165.785 42.6429L167.284 42.5873C168.85 42.5292 170.422 42.5 172 42.5C173.578 42.5 175.15 42.5292 176.716 42.5873L178.215 42.6429L178.27 41.1527C183.653 41.4152 188.968 42.0143 194.201 42.9338L193.926 44.3994L195.401 44.6762C198.49 45.2562 201.551 45.9494 204.58 46.7523L206.03 47.1366L206.412 45.695C211.564 47.1242 216.624 48.8677 221.577 50.9087L220.993 52.2817L222.374 52.8683C225.257 54.0935 228.103 55.4211 230.911 56.8478L232.248 57.5274L232.924 56.1972C237.639 58.6568 242.242 61.3933 246.718 64.3908L245.876 65.6228L247.114 66.4696C249.696 68.2356 252.235 70.09 254.729 72.0297L255.913 72.9505L256.83 71.772C260.982 75.0646 265.006 78.5917 268.891 82.3387L267.845 83.4046L268.916 84.4553C271.149 86.6467 273.334 88.9123 275.47 91.2493L276.483 92.3564L277.585 91.3486C281.126 95.2874 284.528 99.421 287.781 103.736L286.581 104.626L287.474 105.831C289.34 108.346 291.155 110.923 292.917 113.558L293.752 114.804L294.994 113.973C297.906 118.398 300.672 122.982 303.282 127.714L301.968 128.427L302.683 129.745C304.178 132.5 305.619 135.305 307.007 138.157L307.663 139.506L309.007 138.853C311.291 143.633 313.424 148.543 315.397 153.571L314.001 154.108L314.54 155.508C315.666 158.435 316.737 161.402 317.753 164.407L318.233 165.828L319.65 165.349C321.314 170.381 322.823 175.515 324.168 180.743L322.718 181.107L323.082 182.562C323.845 185.605 324.552 188.68 325.203 191.784L325.51 193.253L326.974 192.946C328.028 198.14 328.924 203.415 329.655 208.762L328.172 208.955L328.366 210.443C328.772 213.555 329.122 216.691 329.414 219.85L329.552 221.343L331.041 221.206Z" stroke="white" stroke-width="3" stroke-linecap="square" stroke-linejoin="round" stroke-dasharray="10 20"/>
</svg>
