<svg width="30" height="27" viewBox="0 0 30 27" fill="none" xmlns="http://www.w3.org/2000/svg">
<path d="M1.66797 2.89497V10.8394M1.66797 10.8394H9.64353M1.66797 10.8394L7.83574 5.06645C9.67133 3.24111 12.0528 2.05944 14.6212 1.69949C17.1896 1.33954 19.8059 1.8208 22.0759 3.07076C24.3459 4.32073 26.1465 6.27168 27.2066 8.62966C28.2666 10.9876 28.5286 13.6249 27.9531 16.1441C27.3775 18.6633 25.9957 20.928 24.0157 22.5969C22.0357 24.2657 19.5648 25.2484 16.9754 25.3969C14.3859 25.5453 11.8182 24.8515 9.65903 23.4199C7.49988 21.9883 5.8663 19.8966 5.00441 17.4598" stroke="white" stroke-width="2.5" stroke-linecap="round" stroke-linejoin="round"/>
</svg>
