<svg width="320" height="405" viewBox="0 0 320 405" fill="none" xmlns="http://www.w3.org/2000/svg">
<path d="M319.041 180.206C319.498 185.486 319.795 190.828 319.925 196.223L318.429 196.251L318.457 197.751C318.485 199.329 318.5 200.912 318.5 202.5C318.5 204.088 318.485 205.671 318.457 207.249L318.429 208.749L319.925 208.776C319.795 214.172 319.498 219.513 319.041 224.794L317.552 224.657L317.414 226.15C317.122 229.309 316.772 232.445 316.366 235.557L316.172 237.045L317.655 237.238C316.924 242.585 316.028 247.86 314.974 253.054L313.51 252.747L313.203 254.216C312.552 257.32 311.845 260.395 311.082 263.438L310.718 264.893L312.168 265.257C310.823 270.485 309.314 275.619 307.65 280.651L306.233 280.172L305.753 281.593C304.737 284.598 303.666 287.565 302.54 290.492L302.001 291.892L303.397 292.429C301.424 297.457 299.291 302.367 297.007 307.147L295.663 306.494L295.007 307.843C293.619 310.695 292.178 313.5 290.683 316.255L289.968 317.573L291.282 318.286C288.672 323.018 285.906 327.602 282.994 332.026L281.752 331.196L280.918 332.442C279.155 335.077 277.34 337.654 275.474 340.169L274.581 341.374L275.781 342.264C272.528 346.579 269.126 350.713 265.585 354.651L264.483 353.644L263.47 354.751C261.334 357.088 259.149 359.353 256.916 361.545L255.845 362.595L256.891 363.661C253.006 367.408 248.982 370.935 244.83 374.228L243.913 373.049L242.729 373.97C240.235 375.91 237.696 377.764 235.114 379.53L233.876 380.377L234.718 381.609C230.242 384.607 225.639 387.343 220.924 389.803L220.248 388.473L218.911 389.152C216.103 390.579 213.257 391.906 210.374 393.132L208.993 393.718L209.577 395.091C204.624 397.132 199.564 398.876 194.412 400.305L194.03 398.863L192.58 399.248C189.551 400.051 186.49 400.744 183.401 401.324L181.926 401.601L182.201 403.066C176.968 403.986 171.653 404.585 166.27 404.847L166.215 403.357L164.716 403.413C163.15 403.471 161.578 403.5 160 403.5C158.422 403.5 156.85 403.471 155.284 403.413L153.785 403.357L153.73 404.847C148.347 404.585 143.032 403.986 137.799 403.066L138.074 401.601L136.599 401.324C133.51 400.744 130.449 400.051 127.42 399.248L125.97 398.863L125.588 400.305C120.436 398.876 115.376 397.132 110.423 395.091L111.007 393.718L109.626 393.132C106.743 391.907 103.897 390.579 101.089 389.152L99.7521 388.473L99.0761 389.803C94.3605 387.343 89.7582 384.607 85.2818 381.609L86.1244 380.377L84.8863 379.53C82.3044 377.764 79.7651 375.91 77.271 373.97L76.087 373.049L75.1704 374.228C71.018 370.935 66.9936 367.408 63.1086 363.661L64.1548 362.595L63.0842 361.545C60.8515 359.353 58.6658 357.088 56.5295 354.751L55.5175 353.644L54.415 354.651C50.8743 350.713 47.4723 346.579 44.2194 342.264L45.4195 341.374L44.5259 340.169C42.6604 337.654 40.8452 335.077 39.0825 332.442L38.2485 331.196L37.0064 332.026C34.0942 327.602 31.3283 323.018 28.718 318.286L30.0319 317.573L29.3167 316.255C27.8223 313.5 26.3806 310.695 24.9935 307.843L24.3374 306.494L22.9931 307.147C20.7086 302.367 18.5759 297.457 16.6035 292.429L17.9988 291.892L17.4603 290.492C16.3343 287.565 15.2626 284.598 14.2471 281.593L13.7668 280.172L12.3503 280.651C10.6858 275.619 9.17713 270.485 7.83199 265.257L9.28245 264.893L8.91773 263.438C8.15485 260.395 7.44757 257.32 6.7974 254.216L6.48993 252.747L5.02627 253.054C3.97154 247.86 3.07554 242.585 2.34521 237.238L3.82816 237.045L3.63402 235.557C3.22782 232.445 2.87801 229.309 2.58597 226.15L2.44787 224.657L0.958639 224.794C0.501687 219.514 0.205172 214.172 0.0753927 208.777L1.57082 208.749L1.54339 207.249C1.51452 205.671 1.5 204.088 1.5 202.5C1.5 200.912 1.51452 199.329 1.54339 197.751L1.57082 196.251L0.0753918 196.224C0.20517 190.828 0.501686 185.487 0.958637 180.206L2.44787 180.343L2.58597 178.85C2.87801 175.691 3.22782 172.555 3.63401 169.443L3.82815 167.955L2.3452 167.762C3.07554 162.415 3.97154 157.14 5.02627 151.946L6.48992 152.253L6.7974 150.784C7.44756 147.68 8.15485 144.605 8.91772 141.562L9.28244 140.107L7.83199 139.743C9.17713 134.515 10.6858 129.381 12.3503 124.349L13.7668 124.828L14.2471 123.407C15.2626 120.402 16.3343 117.435 17.4603 114.508L17.9988 113.108L16.6035 112.571C18.5759 107.543 20.7086 102.633 22.9931 97.8526L24.3374 98.5064L24.9934 97.1575C26.3806 94.3052 27.8223 91.5004 29.3167 88.7454L30.0319 87.4269L28.718 86.7142C31.3283 81.9823 34.0942 77.3981 37.0064 72.9735L38.2485 73.8044L39.0825 72.5577C40.8452 69.9227 42.6604 67.3463 44.5259 64.8311L45.4195 63.6263L44.2194 62.7362C47.4723 58.421 50.8743 54.2874 54.415 50.3486L55.5175 51.3564L56.5295 50.2493C58.6658 47.9123 60.8514 45.6467 63.0842 43.4553L64.1547 42.4046L63.1086 41.3387C66.9935 37.5917 71.018 34.0646 75.1704 30.7721L76.0869 31.9505L77.271 31.0297C79.7651 29.09 82.3044 27.2356 84.8863 25.4696L86.1244 24.6228L85.2817 23.3908C89.7582 20.3933 94.3605 17.6568 99.0761 15.1973L99.7521 16.5274L101.089 15.8478C103.897 14.4211 106.743 13.0935 109.626 11.8683L111.007 11.2817L110.423 9.90873C115.376 7.86771 120.436 6.12424 125.588 4.69502L125.97 6.13662L127.42 5.75229C130.449 4.94937 133.51 4.25621 136.599 3.67619L138.074 3.39942L137.799 1.93377C143.032 1.01428 148.347 0.415192 153.73 0.152654L153.785 1.64287L155.284 1.5873C156.85 1.52924 158.422 1.5 160 1.5C161.578 1.5 163.15 1.52924 164.716 1.5873L166.215 1.64287L166.27 0.152651C171.653 0.415187 176.968 1.01428 182.201 1.93376L181.926 3.39941L183.401 3.67618C186.49 4.2562 189.551 4.94937 192.58 5.75228L194.03 6.13661L194.412 4.69501C199.564 6.12423 204.624 7.86769 209.577 9.90872L208.993 11.2817L210.374 11.8683C213.257 13.0935 216.103 14.4211 218.911 15.8478L220.248 16.5274L220.924 15.1972C225.639 17.6568 230.242 20.3933 234.718 23.3908L233.876 24.6228L235.114 25.4696C237.696 27.2356 240.235 29.09 242.729 31.0297L243.913 31.9505L244.83 30.772C248.982 34.0646 253.006 37.5917 256.891 41.3387L255.845 42.4046L256.916 43.4553C259.149 45.6467 261.334 47.9123 263.47 50.2493L264.483 51.3564L265.585 50.3486C269.126 54.2874 272.528 58.421 275.781 62.7362L274.581 63.6262L275.474 64.831C277.34 67.3463 279.155 69.9227 280.917 72.5577L281.752 73.8044L282.994 72.9735C285.906 77.3981 288.672 81.9823 291.282 86.7142L289.968 87.4268L290.683 88.7454C292.178 91.5004 293.619 94.3052 295.007 97.1574L295.663 98.5064L297.007 97.8526C299.291 102.633 301.424 107.543 303.397 112.571L302.001 113.108L302.54 114.508C303.666 117.435 304.737 120.402 305.753 123.407L306.233 124.828L307.65 124.349C309.314 129.381 310.823 134.515 312.168 139.743L310.718 140.107L311.082 141.562C311.845 144.605 312.552 147.68 313.203 150.784L313.51 152.253L314.974 151.946C316.028 157.14 316.924 162.415 317.655 167.762L316.172 167.955L316.366 169.443C316.772 172.555 317.122 175.691 317.414 178.85L317.552 180.343L319.041 180.206Z" stroke="white" stroke-width="3" stroke-linecap="square" stroke-linejoin="round" stroke-dasharray="10 20"/>
<path d="M131.5 277.5C138.833 283.667 158.9 292.3 180.5 277.5" stroke="white" stroke-width="3" stroke-linecap="round"/>
<path d="M55 195C69.1667 205.685 92 220.273 129 195" stroke="white" stroke-width="3" stroke-linecap="round"/>
<path d="M183 194C197.167 204.685 220 219.273 257 194" stroke="white" stroke-width="3" stroke-linecap="round"/>
<g filter="url(#filter0_b_1772:1281)">
<circle cx="52" cy="199" r="16" fill="white" fill-opacity="0.6"/>
<circle cx="52" cy="199" r="13.5" stroke="#FF945D" stroke-opacity="0.6" stroke-width="5"/>
<circle cx="52.5" cy="199.5" r="3.5" fill="#FF945D" fill-opacity="0.6"/>
</g>
<path d="M188.5 332.5C188.5 335.893 185.662 339.383 180.112 342.114C174.658 344.798 167.019 346.5 158.5 346.5C149.981 346.5 142.342 344.798 136.888 342.114C131.338 339.383 128.5 335.893 128.5 332.5C128.5 329.107 131.338 325.617 136.888 322.886C142.342 320.202 149.981 318.5 158.5 318.5C167.019 318.5 174.658 320.202 180.112 322.886C185.662 325.617 188.5 329.107 188.5 332.5Z" stroke="white" stroke-width="3"/>
<g filter="url(#filter1_b_1772:1281)">
<circle cx="261" cy="199" r="16" fill="white" fill-opacity="0.6"/>
<circle cx="261" cy="199" r="13.5" stroke="#FF945D" stroke-opacity="0.6" stroke-width="5"/>
<circle cx="261.5" cy="199.5" r="3.5" fill="#FF945D" fill-opacity="0.6"/>
</g>
<defs>
<filter id="filter0_b_1772:1281" x="28" y="175" width="48" height="48" filterUnits="userSpaceOnUse" color-interpolation-filters="sRGB">
<feFlood flood-opacity="0" result="BackgroundImageFix"/>
<feGaussianBlur in="BackgroundImage" stdDeviation="4"/>
<feComposite in2="SourceAlpha" operator="in" result="effect1_backgroundBlur_1772:1281"/>
<feBlend mode="normal" in="SourceGraphic" in2="effect1_backgroundBlur_1772:1281" result="shape"/>
</filter>
<filter id="filter1_b_1772:1281" x="237" y="175" width="48" height="48" filterUnits="userSpaceOnUse" color-interpolation-filters="sRGB">
<feFlood flood-opacity="0" result="BackgroundImageFix"/>
<feGaussianBlur in="BackgroundImage" stdDeviation="4"/>
<feComposite in2="SourceAlpha" operator="in" result="effect1_backgroundBlur_1772:1281"/>
<feBlend mode="normal" in="SourceGraphic" in2="effect1_backgroundBlur_1772:1281" result="shape"/>
</filter>
</defs>
</svg>
