<svg width="26" height="23" viewBox="0 0 26 23" fill="none" xmlns="http://www.w3.org/2000/svg">
<path d="M21.0207 6.74192L25.8429 11.0078C25.9143 11.0715 25.9644 11.1542 25.9868 11.2453C26.0092 11.3365 26.003 11.4319 25.9689 11.5197C25.9347 11.6074 25.8743 11.6834 25.7951 11.738C25.716 11.7926 25.6218 11.8234 25.5244 11.8264H22.942V22.2982C22.942 22.4229 22.8906 22.5426 22.7992 22.6311C22.7078 22.7197 22.5836 22.7698 22.4539 22.7707H16.3993C16.2692 22.7698 16.1447 22.7198 16.0527 22.6313C15.9608 22.5429 15.9087 22.4232 15.9078 22.2982V19.0405C15.9078 18.3027 15.6029 17.5952 15.0601 17.0735C14.5174 16.5518 13.7813 16.2587 13.0138 16.2587C12.2465 16.2596 11.511 16.5529 10.9684 17.0745C10.4259 17.596 10.1207 18.303 10.1198 19.0405V22.3082C10.1198 22.4329 10.0685 22.5526 9.97705 22.6411C9.88561 22.7296 9.76147 22.7798 9.6317 22.7807H3.57718C3.44681 22.7807 3.32178 22.7309 3.2296 22.6423C3.13741 22.5537 3.08562 22.4335 3.08562 22.3082V11.8364H0.503189C0.403461 11.8387 0.30537 11.8117 0.221957 11.7591C0.138544 11.7065 0.0737499 11.6308 0.036184 11.542C-0.00138188 11.4531 -0.00993861 11.3554 0.0116432 11.2618C0.033225 11.1682 0.0839299 11.0831 0.157018 11.0178L12.3353 0.249876C12.5163 0.0892158 12.7536 0 12.9999 0C13.2463 0 13.4836 0.0892158 13.6646 0.249876L16.2989 2.57916L21.0207 6.74192Z" fill="white"/>
</svg>
